# xmcd CD database file
#
# Track frame offsets:
#	150
#	20657
#	35195
#	54672
#
# Disc length: 1000 seconds
#
# Revision: 1
# Processed by: cddbd v1.5.2PL0 Copyright (c) Steve Scherf et al.
# Submitted via: CDex 1.51
#
DISCID=3403e604
DTITLE=??? - ?????
DYEAR=2004
DGENRE=J-Pop
TTITLE0=?????
TTITLE1=?????
TTITLE2=??
TTITLE3=???????????????????
EXTD=YEAR: 2004
EXTT0=
EXTT1=
EXTT2=
EXTT3=
PLAYORDER=
